PathFileType	4	(X/Y/Z)	C:/Users/beibeiliu/ov580/test_trc/User1\sequence.29_training_dense_left.trc
DataRate	CameraRate	NumFrames	NumMarkers	Units	OrigDataRate	OrigDataStartFrame	OrigNumFrames
120	120	23	19	mm	120	58	228
Frame#	Time	ThumbCMC			ThumbMCP			ThumbIP			ThumbTip			IndexMCP			IndexPIP			IndexTip			MiddleMCP			MiddlePIP			MiddleTip			RingMCP			RingPIP			RingTip			PinkyMCP			PinkyPIP			PinkyTip			BackHand1			BackHand2			BackHand3	
		X0	Y0	Z0	X1	Y1	Z1	X2	Y2	Z2	X3	Y3	Z3	X4	Y4	Z4	X5	Y5	Z5	X6	Y6	Z6	X7	Y7	Z7	X8	Y8	Z8	X9	Y9	Z9	X10	Y10	Z10	X11	Y11	Z11	X12	Y12	Z12	X13	Y13	Z13	X14	Y14	Z14	X15	Y15	Z15	X16	Y16	Z16	X17	Y17	Z17	X18	Y18	Z18	
57	0.475	-106.305	8.46509	48.3134	-87.6435	-5.90451	20.0453	-80.4745	-11.0627	-9.95781	-70.074	-18.0912	-28.1501	-121.316	34.8399	-33.8598	-121.275	33.3309	-58.7156	-119.563	32.593	-84.0269	-135.033	15.1945	-45.3055	-122.75	5.937	-66.8699	-106.385	-12.8322	-93.2645	-155.716	0.484273	-41.8159	-150.471	-3.72169	-67.4783	-143.623	-10.9248	-87.5241	-175.204	-22.3092	-20.9657	-179.953	-28.3947	-42.74	-186.877	-27.5309	-63.4986	-169.758	3.25339	20.105	-171.35	5.17297	53.9267	-144.269	26.2246	40.1336	
58	0.483333	-102.491	9.72589	48.9489	-86.9968	-6.17106	19.5818	-77.115	-10.3548	-5.27647	-67.2077	-17.0523	-28.4388	-122.616	35.0604	-30.3061	-121.431	35.0095	-56.3759	-121.072	34.6071	-86.4829	-137.574	16.5026	-42.6488	-122.342	6.92808	-71.7715	-109.451	-6.81782	-96.0665	-158.714	0.34137	-38.252	-152.932	-5.59271	-67.4271	-146.065	-11.0141	-87.308	-176.852	-22.8111	-21.3724	-178.797	-26.3927	-40.8071	-186.833	-28.056	-65.9053	-166.779	7.33302	18.3135	-172.654	2.77474	54.7808	-144.691	26.2056	38.4876	
59	0.491667	-101.852	9.07799	49.371	-85.6664	-6.66102	19.8477	-75.6687	-10.9693	-5.27619	-67.2266	-18.2981	-28.121	-120.978	37.4887	-34.0264	-118.183	39.4248	-59.7568	-121.983	35.7358	-81.8393	-139.483	17.8462	-46.1223	-127.645	12.6368	-69.6253	-118.542	-2.99167	-96.7902	-159.414	0.134683	-41.6133	-152.471	-4.11446	-68.9438	-148.719	-12.1281	-93.5719	-176.311	-22.7478	-19.656	-181.501	-29.5667	-44.6338	-185.599	-29.3092	-64.1439	-171.561	3.87912	22.0764	-174.831	2.89641	53.7426	-141.531	28.0108	39.0934	
60	0.5	-102.235	10.0515	48.9285	-85.6781	-5.53191	21.0408	-71.9482	-9.90288	-7.81453	-64.2981	-16.6332	-25.5144	-123.487	35.2887	-28.8093	-122.978	37.8244	-56.3922	-124.845	38.1558	-86.1637	-138.989	21.3665	-44.4316	-132.43	14.082	-69.6633	-119.953	4.52197	-101.276	-160.937	0.583419	-40.6743	-157.031	-5.52018	-68.7122	-149.266	-10.687	-90.449	-175.946	-22.2046	-22.002	-181.718	-30.2148	-41.5808	-189.774	-29.9285	-63.0785	-169.02	6.09551	17.6099	-172.492	2.8429	55.2048	-145.453	23.1459	37.8839	
61	0.508333	-101.658	10.6785	47.43	-81.9458	-4.67653	22.0084	-69.0674	-9.30261	-2.4642	-56.9508	-15.607	-24.3519	-125.8	34.1881	-29.8216	-124.35	37.8623	-57.9193	-122.36	40.6198	-83.5571	-141.313	20.815	-46.0618	-135.337	15.0497	-74.215	-126.392	7.77947	-102.426	-163.095	-1.73585	-39.6289	-156.639	-3.86021	-68.5366	-152.462	-12.7293	-93.4298	-179.174	-25.624	-23.6154	-181.655	-30.2894	-43.7766	-186.017	-30.2628	-65.6613	-170.32	4.14176	16.6958	-172.57	2.03026	51.2839	-142.437	27.3008	40.335	
62	0.516667	-102.124	10.5605	48.8549	-81.3211	-3.17368	20.0903	-70.1841	-8.50444	-0.154168	-57.2717	-14.2042	-23.562	-124.178	35.9627	-32.7896	-122.993	38.9496	-56.3332	-124.808	38.7865	-85.7866	-142.973	21.9778	-43.647	-135.383	19.5108	-74.486	-133.168	11.076	-101.87	-161.793	-0.688147	-41.6161	-155.932	-1.75944	-67.3939	-150.767	-11.1933	-94.4007	-177.578	-24.0052	-22.7843	-181.143	-30.5071	-43.0906	-188.261	-31.1074	-66.785	-169.261	6.39948	22.34	-170.585	3.27226	52.8073	-143.041	25.383	38.8566	
63	0.525	-103.232	10.85	47.6779	-81.031	-2.46314	22.7931	-69.061	-7.23044	-0.286599	-56.2185	-14.3879	-21.3635	-123.416	35.9736	-31.7305	-122.561	39.1662	-59.334	-123.134	40.804	-85.3087	-144.987	22.3259	-45.1545	-138.726	21.5574	-71.268	-132.436	16.4005	-102.009	-160.895	0.921111	-38.4124	-154.657	-2.31199	-68.8811	-150.86	-11.1349	-92.262	-175.722	-21.3565	-21.2492	-180.901	-30.6912	-41.779	-184.668	-28.9496	-67.7565	-167.619	6.68077	20.6591	-176.102	1.5635	53.9614	-143.248	27.7499	37.0156	
64	0.533333	-105.548	11.2595	45.6407	-80.5619	-3.73437	25.5753	-64.4953	-6.77132	-2.86886	-55.1826	-15.4762	-19.2209	-124.555	36.0366	-34.1098	-122.805	39.6327	-60.7563	-121.653	40.7576	-82.2391	-144.403	25.0482	-44.0439	-140.876	22.1875	-74.0965	-137.618	18.1085	-103.207	-162.645	-0.0505922	-41.9852	-156.493	-2.80922	-68.2661	-148.438	-10.1101	-93.3375	-174.677	-22.3096	-23.8344	-180.34	-30.2234	-43.6287	-188.082	-33.1723	-64.3618	-169.74	5.24886	19.5932	-173.211	1.03408	52.3871	-142.318	25.0473	37.3569	
65	0.541667	-104.324	11.3832	45.758	-80.2338	-2.44809	19.8713	-66.9032	-9.08574	1.95722	-53.2507	-14.9672	-18.3094	-123.672	36.8544	-29.1229	-123.284	38.4788	-59.6308	-123.982	41.0145	-85.7681	-145.082	26.0031	-43.763	-144.425	22.4905	-73.0794	-143.131	19.0244	-99.367	-158.18	2.50214	-42.0542	-154.485	-2.94504	-70.3712	-149.791	-11.7291	-93.2906	-174.97	-23.2142	-26.7339	-180.959	-32.8479	-42.7634	-185.298	-29.0948	-67.1886	-168.895	4.31469	21.2875	-176.32	2.13957	49.6949	-145.884	25.0661	38.0968	
66	0.55	-102.274	12.5428	45.6637	-78.6947	-1.93195	23.4787	-66.0005	-8.04368	-1.18055	-50.9753	-14.9593	-18.9652	-122.568	38.4802	-28.7743	-121.862	40.8441	-57.5023	-121.88	41.8496	-84.3218	-147.898	26.2483	-44.1214	-143.373	28.0066	-68.1071	-143.164	22.8995	-101.71	-159.364	1.96455	-42.2935	-157.308	-3.62047	-69.7188	-148.514	-9.81081	-90.3853	-175.954	-22.5809	-22.0431	-177.923	-29.1843	-42.8116	-186.692	-33.0876	-64.643	-168.875	6.94657	21.4362	-174.037	1.65542	49.9276	-144.963	27.0752	38.8578	
67	0.558333	-101.234	13.6433	45.1771	-79.7705	-3.58401	22.5627	-64.5524	-8.41562	-2.65804	-55.6693	-16.8173	-23.0914	-124.557	36.8516	-30.3028	-121.352	40.3974	-56.7297	-121.202	42.1416	-82.6594	-147.88	24.7055	-42.46	-145.411	25.9499	-71.4592	-145.567	23.0763	-99.2108	-158.932	1.7324	-41.6734	-153.17	-4.34614	-71.4522	-145.198	-11.1502	-92.9704	-175.689	-24.1207	-26.5768	-179.002	-30.7677	-45.5853	-183.823	-31.0816	-69.7197	-170.142	7.01865	20.5012	-171.944	2.33778	49.4286	-144.084	26.6507	37.8517	
68	0.566667	-100.92	12.3433	46.1151	-78.5951	-4.62167	21.6776	-69.2869	-10.3766	-1.56256	-55.4024	-19.0478	-22.6352	-122.834	38.4454	-33.0293	-122.056	41.4171	-61.5051	-124.173	39.3748	-84.3084	-148.459	25.474	-42.9943	-146.286	24.6302	-69.0692	-143.274	25.0383	-97.995	-157.213	2.87749	-40.1123	-151.827	-4.32697	-69.2686	-146.356	-13.6944	-90.4062	-176.649	-24.611	-24.5638	-177.516	-28.0518	-45.4821	-181.61	-26.9573	-67.7627	-168.422	7.19345	17.1725	-175.147	2.22816	50.5049	-144.405	25.0734	36.371	
69	0.575	-104.392	11.3418	46.1421	-81.265	-4.32967	17.8644	-68.9086	-10.2941	-5.54536	-57.4856	-20.2027	-23.7582	-120.12	41.529	-32.9157	-120.834	41.4739	-61.282	-122.889	40.5693	-84.7573	-148.119	26.0822	-45.9198	-146.806	26.2115	-69.5584	-144.035	26.6264	-100.936	-158.656	0.596293	-41.872	-153.134	-4.57489	-68.0504	-141.262	-12.1148	-90.1686	-176.434	-22.5383	-26.103	-176.638	-25.5123	-45.4013	-182.86	-26.2993	-65.1349	-170.7	6.89311	20.8777	-174.571	0.657014	54.0975	-144.344	25.9214	37.8013	
70	0.583333	-101.43	12.8159	45.4983	-84.8775	-5.08069	18.186	-70.6749	-11.7178	-7.28479	-61.0357	-20.5377	-28.0704	-120.811	42.6018	-32.8196	-119.048	44.3851	-55.2597	-123.121	42.4565	-86.4465	-145.133	28.702	-42.6708	-145.599	27.3023	-69.8676	-140.872	28.9723	-98.9146	-158.282	1.33517	-41.7	-146.55	-4.59294	-71.8564	-136.319	-15.8722	-94.4179	-175.86	-22.4177	-27.5603	-178.073	-27.8518	-43.3634	-179.811	-24.6229	-70.7775	-170.812	6.72846	17.6228	-169.892	3.50747	53.1021	-143.847	26.5273	38.4349	
71	0.591667	-101.814	13.6921	42.0059	-81.4237	-5.76107	19.8914	-74.4026	-12.588	-8.32558	-62.9955	-23.2084	-30.0359	-124.256	38.9471	-33.6911	-120.574	42.7125	-59.9939	-122.216	42.6659	-86.8862	-146.738	28.4524	-42.3636	-142.711	29.071	-70.1534	-141.88	28.3194	-102.524	-153.68	1.51034	-44.1935	-146.624	-5.63267	-67.6688	-132.01	-19.7844	-92.7258	-173.763	-21.4014	-22.8961	-175.035	-25.7978	-45.8651	-180.066	-23.3247	-71.3655	-169.293	6.9497	16.1452	-172.124	3.27517	51.1708	-141.604	29.3374	37.0351	
72	0.6	-101.096	12.3765	46.8727	-82.394	-5.70523	18.4241	-71.682	-12.1585	-8.73566	-68.6812	-22.6631	-31.5719	-123.874	40.2048	-33.2705	-122.591	42.2991	-58.0612	-120.779	43.2765	-82.8297	-148.011	26.3514	-45.3378	-145.598	25.5446	-73.7299	-143.583	24.8956	-100.686	-154.283	-0.458727	-43.7694	-142.235	-8.28662	-70.7283	-125.967	-21.7652	-89.9749	-171.05	-18.6087	-24.4678	-175.191	-25.8433	-44.7908	-182.29	-25.9087	-69.0908	-171.159	6.14989	19.0277	-171.771	3.36556	54.4474	-144.266	26.7252	38.7666	
73	0.608333	-103.216	12.0451	47.2762	-85.947	-4.41032	15.3474	-75.803	-12.519	-12.9877	-67.5352	-24.1718	-31.1669	-121.908	41.0911	-30.4726	-119.11	45.1394	-57.7855	-121.977	42.4691	-85.8208	-145.103	27.6775	-42.8532	-144.695	25.7854	-69.3398	-143.735	24.4296	-102.716	-152.507	1.27888	-41.638	-137.988	-10.3381	-70.1144	-122.838	-26.8172	-87.5817	-171.747	-19.4974	-28.3315	-175.8	-27.2197	-46.0407	-177.356	-23.4804	-72.0534	-167.186	8.28107	16.9096	-174.419	0.965183	48.8266	-144.42	26.7821	36.7023	
74	0.616667	-105.438	11.7107	45.5769	-82.226	-4.68557	16.0566	-76.9162	-13.0984	-13.8789	-68.0222	-24.0723	-32.1364	-122.564	40.0075	-31.2839	-121.547	42.4762	-57.6839	-119.63	44.0852	-83.8599	-145.299	27.2252	-45.4028	-143.649	24.6897	-70.5693	-141.071	25.8474	-98.4326	-150.743	1.12981	-40.5389	-137.962	-13.8078	-70.5689	-122.77	-27.4166	-81.4689	-172.357	-21.5761	-26.2121	-172.144	-24.6693	-43.1704	-176.445	-22.8332	-69.0462	-169.274	3.09475	19.5834	-171.625	4.00404	52.5888	-143.459	27.2512	38.4571	
75	0.625	-102.418	13.1083	44.8836	-84.4691	-5.92502	14.8691	-76.236	-12.9624	-11.1147	-70.9381	-25.6464	-32.5886	-125.314	39.2116	-31.6711	-122.133	41.2738	-60.1848	-119.165	44.1664	-83.4836	-145.116	26.5934	-43.8861	-144.009	23.6863	-70.616	-142.306	23.4264	-101.979	-151.211	-3.27102	-42.9954	-135.189	-11.969	-67.7537	-117.532	-32.3575	-83.8155	-169.256	-20.277	-24.6038	-173.287	-26.5165	-43.5642	-175.961	-21.331	-68.8861	-166.11	7.51114	15.3446	-171.137	2.62004	53.8549	-146.323	26.1988	40.5459	
76	0.633333	-102.188	14.099	42.2578	-83.0647	-5.53575	15.0988	-80.9881	-14.0687	-13.311	-72.3307	-26.3012	-35.1515	-121.461	42.4356	-29.4679	-119.486	44.4659	-57.6016	-121.528	41.4384	-82.5712	-145.474	26.0311	-46.2498	-144.711	23.0056	-71.5753	-141.148	23.5584	-98.4616	-148.629	-0.58457	-42.2096	-135.182	-16.7956	-69.0035	-118.224	-32.3665	-79.6343	-170.874	-21.9745	-27.0565	-172.171	-25.9903	-43.9912	-177.608	-22.3362	-71.2168	-166.969	4.6602	19.2677	-174.938	0.603191	48.6399	-147.108	27.5179	35.8855	
77	0.641667	-107.017	12.4692	44.5501	-87.3042	-5.208	13.6481	-79.4826	-14.8944	-13.5547	-75.3619	-26.3539	-33.8911	-125.094	39.7424	-31.1741	-121.638	42.658	-58.291	-123.199	41.7753	-84.6535	-145.229	25.874	-44.7518	-142.251	23.1915	-69.4347	-142.156	18.8991	-99.1207	-148.498	-4.13167	-43.6911	-133.062	-19.0585	-68.2036	-113.51	-34.5238	-80.49	-169.348	-20.5744	-28.6866	-170.86	-25.176	-47.335	-172.918	-22.0379	-68.2311	-170.864	4.91263	16.7244	-174.177	-1.45612	50.3865	-149.095	26.4098	36.0013	
78	0.65	-103.985	14.2397	45.2494	-87.4325	-4.34305	11.3172	-82.4639	-14.4892	-13.6207	-80.4058	-26.093	-35.1768	-124.647	39.6932	-33.6414	-121.286	42.5974	-56.2106	-122.29	40.9739	-81.6331	-148.587	21.1051	-42.8262	-142.702	21.1819	-74.2022	-140.163	20.0956	-99.6323	-149.64	-3.89072	-41.1426	-133.713	-19.4016	-67.3882	-114.992	-32.3447	-77.5736	-168.137	-21.9547	-23.9611	-170.206	-25.9017	-48.6299	-174.86	-22.9533	-69.0452	-167.268	3.21109	19.5441	-172.718	-1.64041	49.264	-146.1	26.3254	37.8457	
79	0.658333	-105.829	13.5476	43.0672	-86.3501	-4.50195	12.5758	-79.2046	-13.7669	-15.1706	-77.6238	-25.8715	-36.5323	-126.238	38.6584	-32.0327	-123.251	40.8751	-61.3237	-122.533	42.2774	-81.6904	-147.636	20.8318	-45.0426	-141.719	21.2693	-69.8637	-141.542	16.7462	-98.6349	-146.718	-4.51197	-45.4946	-132.622	-19.534	-66.0065	-112.338	-31.7389	-76.961	-168.807	-21.9045	-25.8023	-171.351	-26.6463	-44.135	-174.117	-23.779	-67.3514	-168.829	1.26772	19.2158	-173.316	0.994509	49.1776	-148.233	27.4267	37.243	
